<svg xmlns="http://www.w3.org/2000/svg" viewBox="0 0 54 54" fill="none">
  <path d="M53.49 28.677c-.8.967-12.539 1.123-13.269 3.477-1.078 3.473 9.212 11 5.7 13.279-4.009 2.607-9.607-6.575-13.744-5.205-3.046 1.009-.414 12.817-5.81 13.285-3.49-1.9-2.19-12.377-4.894-13.288-4.135-1.392-8.762 7.244-13.717 5.659-1.572-4.339 6.691-10.49 5.676-13.725-1.02-3.26-14.931-1-13.3-6.763.778-2.752 12.512-2.549 13.393-3.86C15.468 18.913 3.265 7.929 9.208 6.784c2.686-.517 9.14 7.618 12.283 6.639 3.389-1.055.559-14.595 5.8-13.342 4.738 1.135 1.472 12.447 5.875 13.25 3.54.645 9.474-9.325 12.8-5.155 2.417 3.031-6.208 9.239-5.651 12.3.689 3.778 9.966 2.274 12.3 3.914 1.051.742 1.333 3.731.877 4.282Z" fill="#f90000"/>
</svg>
