<svg xmlns="http://www.w3.org/2000/svg" viewBox="0 0 320 96" fill="none">
  <rect width="320" height="96" rx="12" fill="transparent"/>
  <path d="M27 76V20h12.8l15.4 22.6L70.4 20H83v56H70.2V40.1L55.7 61H54L39.8 40.3V76H27Z" fill="#111111"/>
  <path d="M101 76V20h13.2v56H101Z" fill="#111111"/>
  <path d="M127 76V20h12.5l22.7 31.8V20h13.2v56h-11.8L140.2 43v33H127Z" fill="#111111"/>
  <path d="M188 76V20h13.2v56H188Z" fill="#111111"/>
  <path d="M214 76V20h24.2c14.7 0 24.8 10.8 24.8 28s-10.1 28-24.8 28H214Zm13.2-11.6h10.1c7.6 0 12.3-6.3 12.3-16.4s-4.7-16.4-12.3-16.4h-10.1v32.8Z" fill="#111111"/>
  <path d="M272.5 76V20h13.2v22.1L304.9 20H320l-20.7 24.9L320 76h-15.6l-14.2-21.6-4.5 5.3V76h-13.2Z" fill="#111111"/>
</svg>
